<svg width="700" height="1000" viewBox="0 0 700 1000" fill="none" xmlns="http://www.w3.org/2000/svg">
<rect width="700" height="1000" fill="#ECECEC"/>
<path d="M350 411.5C350 411.5 327.875 382 276.25 382C224.625 382 202.5 411.5 202.5 411.5V618C202.5 618 224.625 603.25 276.25 603.25C327.875 603.25 350 618 350 618M350 411.5V618M350 411.5C350 411.5 372.125 382 423.75 382C475.375 382 497.5 411.5 497.5 411.5V618C497.5 618 475.375 603.25 423.75 603.25C372.125 603.25 350 618 350 618" stroke="#B7B7B7" stroke-width="20" stroke-linecap="round" stroke-linejoin="round"/>
</svg>
